<?xml version="1.0" encoding="UTF-8" standalone="no"?>
<!-- Created with Inkscape (http://www.inkscape.org/) -->

<svg
   width="210mm"
   height="297mm"
   viewBox="0 0 210 297"
   version="1.1"
   id="svg5"
   xml:space="preserve"
   xmlns:xlink="http://www.w3.org/1999/xlink"
   xmlns="http://www.w3.org/2000/svg"
   xmlns:svg="http://www.w3.org/2000/svg"><defs
     id="defs2"><linearGradient
       id="linearGradient35101"><stop
         style="stop-color:#f8bbc9;stop-opacity:1;"
         offset="0"
         id="stop35097" /><stop
         style="stop-color:#e2bccb;stop-opacity:1;"
         offset="0.33639145"
         id="stop36347" /><stop
         style="stop-color:#9ce8fc;stop-opacity:1;"
         offset="1"
         id="stop35099" /></linearGradient><linearGradient
       id="linearGradient33633"><stop
         style="stop-color:#ff7293;stop-opacity:1;"
         offset="0"
         id="stop33629" /><stop
         style="stop-color:#ff53f5;stop-opacity:0.84705883;"
         offset="0.27522936"
         id="stop33637" /><stop
         style="stop-color:#fe5102;stop-opacity:0.57396448;"
         offset="0.48318043"
         id="stop35091" /><stop
         style="stop-color:#cd30cc;stop-opacity:0.6745562;"
         offset="0.62385321"
         id="stop35093" /><stop
         style="stop-color:#50a9de;stop-opacity:1;"
         offset="0.81999999"
         id="stop35095" /><stop
         style="stop-color:#b121bb;stop-opacity:1;"
         offset="1"
         id="stop33631" /></linearGradient><linearGradient
       id="linearGradient4573"><stop
         style="stop-color:#c4ffff;stop-opacity:1;"
         offset="0"
         id="stop4571" /></linearGradient><linearGradient
       xlink:href="#linearGradient33633"
       id="linearGradient33635"
       x1="28.771955"
       y1="54.491747"
       x2="105.91673"
       y2="54.491747"
       gradientUnits="userSpaceOnUse" /><linearGradient
       xlink:href="#linearGradient35101"
       id="linearGradient35103"
       x1="32.603954"
       y1="20.472029"
       x2="117.7849"
       y2="117.68922"
       gradientUnits="userSpaceOnUse"
       gradientTransform="matrix(1.0894799,0,0,1.0894799,-6.1495389,-6.1705083)" /></defs><g
     id="layer1"><g
       id="g255"
       transform="matrix(1.6336456,0,0,1.6336456,-5.7951009,24.835524)"><g
         id="g45805"><path
           style="fill:url(#linearGradient35103);fill-opacity:1;stroke-width:0.301425"
           d="m 90.102613,135.18571 c -1.658809,-1.07777 -2.913889,-3.43948 -4.972162,-9.35626 -2.396298,-6.88847 -3.55622,-9.32358 -5.027308,-10.55421 -2.499743,-2.09114 -4.877744,-0.75303 -6.428475,3.6173 -0.458222,1.29137 -1.180209,3.62835 -1.604412,5.19326 -1.435593,5.29597 -2.983394,7.31774 -5.602213,7.31774 -4.494776,0 -7.263716,-3.98232 -10.343617,-14.87633 -1.258495,-4.45146 -2.265101,-6.88539 -3.383598,-8.18138 -1.304955,-1.51206 -1.973753,-1.42469 -3.985141,0.52054 -1.885392,1.82338 -3.095478,2.23321 -4.513694,1.5287 -2.072941,-1.02975 -3.25919,-3.11352 -5.82042,-10.22423 -1.91835,-5.325898 -2.678101,-6.768233 -3.56514,-6.768233 -1.321457,0 -1.533756,0.990181 -2.4757,11.547033 -1.285871,14.41141 -1.607686,16.53899 -2.623435,17.34415 -2.062236,1.63465 -3.264011,-4.91715 -4.896358,-26.693834 -0.491547,-6.557593 -0.750892,-8.308742 -1.54636,-10.441444 -0.553357,-1.483578 -1.864597,-2.949983 -2.637838,-2.949983 -0.605385,0 -1.377973,0.775771 -1.662701,1.669549 -0.322669,1.012881 -1.403542,2.160002 -2.035261,2.160002 -1.482409,0 -3.677621,-4.578926 -5.568642,-11.615477 C 9.8013135,68.436118 9.2859111,64.749454 9.2863599,59.23122 9.2870986,50.152203 11.058276,42.44001 14.921407,34.694677 21.976569,20.549531 34.33472,10.079794 49.762932,5.1771802 64.810109,0.39564791 80.545612,1.2774667 94.643636,7.6922937 107.10736,13.363492 116.79675,22.62073 122.78648,34.579984 c 7.32369,15.014174 5.15674,32.833766 -1.62293,46.00835 -2.20717,4.148342 -4.16796,11.952171 -5.62522,22.388146 -1.33982,9.59508 -2.83309,14.60247 -4.42043,14.82313 -1.0194,0.14168 -1.28024,-0.89073 -1.61791,-6.40336 -0.48491,-7.91675 -1.02631,-10.03996 -2.56016,-10.03996 -2.28256,0 -4.04638,4.94072 -5.73151,16.05467 -2.047128,13.50161 -4.124806,17.93732 -8.587676,18.3342 -1.165181,0.10361 -1.670154,-0.009 -2.518031,-0.55945 z"
           id="path191-6" /><path
           style="fill:url(#linearGradient33635);fill-opacity:1;stroke-width:0.272537"
           d="m 33.830607,66.513485 c -4.28874,-0.63266 -6.218861,-2.643774 -4.340263,-4.522375 0.615195,-0.61519 0.858732,-0.682465 1.975898,-0.545801 0.700823,0.08573 1.948755,0.347731 2.773176,0.582218 2.996546,0.852292 5.178208,-0.173106 5.178208,-2.433801 0,-1.33405 -0.557181,-1.953274 -2.452836,-2.725943 -3.355987,-1.367906 -6.344849,-3.008075 -6.966296,-3.822831 -0.789244,-1.034746 -1.272508,-3.302524 -1.037686,-4.869406 0.58862,-3.927533 3.903899,-6.150161 8.671225,-5.813353 2.833312,0.200172 4.148734,0.601035 5.102706,1.555012 0.957042,0.957045 0.993341,1.977966 0.101978,2.869302 -0.783918,0.783924 -1.547092,0.832247 -3.621207,0.229285 -1.881976,-0.547102 -3.994048,-0.390981 -4.735035,0.35001 -0.292083,0.292078 -0.603575,0.977937 -0.692212,1.524132 -0.234926,1.447674 0.784744,2.358889 3.724729,3.328556 4.018142,1.325264 5.343884,2.167278 6.277111,3.986772 1.932408,3.767549 -0.165634,8.778001 -4.139061,9.884725 -2.043017,0.569044 -3.911974,0.70503 -5.820454,0.423498 z m 32.506098,0.07719 C 65.927792,66.539728 65.34524,66.182777 65.042153,65.79746 64.510249,65.121262 64.491081,64.723173 64.491081,54.356021 V 43.61516 l 0.668954,-0.668954 c 0.492225,-0.492222 0.96352,-0.668957 1.783882,-0.668957 0.820363,0 1.291658,0.176735 1.783884,0.668957 l 0.668954,0.668954 v 10.518618 c 0,11.499469 -0.04141,11.826129 -1.558814,12.308611 -0.416764,0.132513 -1.092321,0.199243 -1.501236,0.14829 z m 29.632462,-0.148562 c -1.81388,-0.603147 -2.759437,-1.201925 -3.779014,-2.393071 -1.713931,-2.00235 -1.944892,-3.15066 -1.93969,-9.64388 0.0041,-5.173756 0.05934,-5.857579 0.574795,-7.121939 0.852501,-2.091052 1.884707,-3.269172 3.604026,-4.1135 1.386929,-0.681101 1.824107,-0.756113 4.401524,-0.755213 2.428052,8.17e-4 3.079402,0.09926 4.298772,0.649476 2.39428,1.080398 3.33284,2.673571 2.37807,4.036712 -0.72492,1.034949 -1.87658,1.057556 -4.00058,0.07854 -1.574102,-0.725547 -2.097902,-0.845398 -3.038592,-0.695256 -1.440901,0.229975 -2.224779,0.744332 -2.834319,1.85979 -0.704429,1.289114 -0.715729,10.720342 -0.01474,12.271429 0.846527,1.873003 3.495609,2.385477 5.936721,1.148475 1.79851,-0.911376 3.05954,-0.899165 3.79574,0.03675 0.31066,0.394954 0.56485,1.024343 0.56485,1.398641 0,0.921817 -1.55101,2.339889 -3.19016,2.916723 -1.75423,0.617328 -5.358811,0.791394 -6.757454,0.32632 z M 77.57288,66.114308 c -1.721358,-0.534494 -3.107164,-1.783231 -4.002608,-3.606715 -0.758785,-1.545207 -0.767706,-1.623491 -0.853995,-7.490158 -0.107962,-7.339658 0.09384,-8.286903 2.217375,-10.406365 1.748707,-1.745373 3.156093,-2.208683 6.591023,-2.16976 2.856582,0.03238 4.481248,0.539866 5.790407,1.808754 1.518931,1.472208 1.061716,3.238539 -0.942024,3.639286 -0.625804,0.12516 -1.151146,-0.01502 -2.066357,-0.551371 -2.513962,-1.473274 -5.14227,-1.084134 -6.315739,0.935093 -0.505874,0.870471 -0.554348,1.418588 -0.554348,6.268363 0,4.620777 0.06458,5.432901 0.495038,6.221698 0.953497,1.747382 3.743063,2.21104 6.019687,1.000544 0.704789,-0.374738 1.682814,-0.681343 2.173391,-0.681343 1.140239,0 2.077113,0.951652 2.077113,2.109891 0,1.074492 -1.365081,2.265178 -3.321263,2.896956 -1.69295,0.546762 -5.584651,0.560143 -7.3077,0.02513 z M 48.262716,65.591595 47.593751,64.92264 V 54.268902 43.615163 l 0.668965,-0.668954 c 0.492215,-0.492223 0.96351,-0.668958 1.783873,-0.668958 0.820374,0 1.291669,0.176735 1.783884,0.668958 l 0.668954,0.668954 v 9.278664 9.278661 h 4.100454 c 3.990186,0 4.118439,0.01798 4.769408,0.668958 0.81753,0.817527 0.853407,1.748418 0.104102,2.701007 l -0.564859,0.718099 H 54.920096 48.93167 Z"
           id="path205" /></g></g></g></svg>
